<?xml version="1.0" encoding="UTF-8"?>
<!-- Created with Inkscape (http://www.inkscape.org/) -->
<svg width="24" height="24" version="1.1" viewBox="0 0 24 24" xmlns="http://www.w3.org/2000/svg">
 <g fill="#face12">
  <g transform="translate(.51965 2.2918)" stroke-width=".41152">
   <path d="m5.6698 7.0031 1.155-1.1524 2.5326 2.5384 3.0105 3.242-0.92176 0.91965-3.2438-3.0093z"/>
   <path d="m10.703 6.3402 1.6285-0.10106 0.12062 1.3037 0.25106 4.9539-1.2996 0.08065-0.57996-4.9335z"/>
  </g>
  <path d="m4.9289 20.068c3.8996 3.8996 10.243 3.8996 14.142 0 3.8996-3.8996 3.8996-10.243 0-14.142-2.612-2.612-6.3192-3.471-9.655-2.584l1.1214 1.1214c2.6723-0.45703 5.5162 0.34544 7.5834 2.4127 3.386 3.386 3.386 8.8558 0 12.242-3.386 3.386-8.8558 3.386-12.242 0-1.7367-1.7367-2.5805-4.0214-2.5356-6.2921l-1.2402-1.2402c-0.42542 3.0079 0.51662 6.1735 2.8257 8.4825zm-1.4626-8.5336c0.0657-0.38416 0.15696-0.76514 0.27483-1.1394l-1.0482-1.0482c-0.13662 0.34976-0.25222 0.70588-0.34803 1.0662zm0.66706-2.1614c0.14488-0.31392 0.31264-0.61862 0.49718-0.91703l-0.97365-0.97365c-0.19151 0.28947-0.3652 0.587-0.52342 0.89079zm1.08-1.7484c0.20544-0.25859 0.42642-0.50929 0.66568-0.74854l-0.95018-0.95018c-0.23856 0.23856-0.46321 0.4859-0.67258 0.74163zm1.4142-1.4142c0.26806-0.21297 0.54578-0.40618 0.8314-0.58281l-0.97365-0.97365c-0.27898 0.18457-0.55164 0.3839-0.81483 0.59938zm1.7484-1.08c0.33334-0.15384 0.6755-0.2831 1.022-0.39222l-1.0482-1.0482c-0.33063 0.12915-0.65566 0.27494-0.97365 0.44056z" color="#000000" stroke-linecap="round" stroke-linejoin="round" style="-inkscape-stroke:none"/>
 </g>
</svg>
